<svg width="22" height="12" viewBox="0 0 22 12" fill="none" xmlns="http://www.w3.org/2000/svg">
<path d="M21.8039 10.7032C21.7448 10.6086 21.379 9.84878 19.6189 8.28709C17.7762 6.65178 18.0238 6.91732 20.2432 4.0897C21.5949 2.36763 22.1353 1.31598 21.9662 0.866405C21.8053 0.437859 20.8111 0.550911 20.8111 0.550911L17.5053 0.569315C17.5053 0.569315 17.2606 0.537766 17.0777 0.641616C16.9003 0.744151 16.7862 0.980772 16.7862 0.980772C16.7862 0.980772 16.2623 2.31373 15.5637 3.44688C14.091 5.83806 13.501 5.96426 13.2604 5.81572C12.7007 5.46999 12.841 4.42491 12.841 3.6835C12.841 1.36594 13.2082 0.399737 12.1246 0.149971C11.7643 0.0671538 11.5003 0.0119424 10.5803 0.00274048C9.4005 -0.00909055 8.4008 0.00668415 7.83563 0.27091C7.45885 0.447061 7.16871 0.840114 7.3461 0.862462C7.56474 0.890068 8.05977 0.989974 8.32242 1.33176C8.66207 1.77214 8.64969 2.76331 8.64969 2.76331C8.64969 2.76331 8.84496 5.49102 8.19453 5.83018C7.74763 6.06285 7.13571 5.5883 5.82248 3.41796C5.15006 2.30716 4.64127 1.07805 4.64127 1.07805C4.64127 1.07805 4.54364 0.849316 4.369 0.727062C4.15724 0.578517 3.86022 0.531193 3.86022 0.531193L0.716735 0.549597C0.716735 0.549597 0.245075 0.562743 0.0718122 0.758612C-0.0821991 0.933448 0.0594363 1.29364 0.0594363 1.29364C0.0594363 1.29364 2.52087 6.79769 5.30682 9.57272C7.86313 12.1164 10.7646 11.9494 10.7646 11.9494H12.0792C12.0792 11.9494 12.4766 11.9074 12.6787 11.6984C12.8658 11.5064 12.8589 11.1463 12.8589 11.1463C12.8589 11.1463 12.8327 9.45967 13.6523 9.21122C14.4595 8.96671 15.4963 10.8413 16.595 11.563C17.4256 12.1085 18.0568 11.9889 18.0568 11.9889L20.9953 11.9494C20.9953 11.9494 22.5327 11.8587 21.8039 10.7032Z" fill="#030A1A"/>
</svg>
