<svg xmlns="http://www.w3.org/2000/svg" xmlns:xlink="http://www.w3.org/1999/xlink"><defs>
<linearGradient id="paint0_linear_82_506" x1="23.7288" y1="3.60806e-05" x2="126.942" y2="12.7733" gradientUnits="userSpaceOnUse">
<stop stop-color="#ED0233"/>
<stop offset="1" stop-color="#003EB7"/>
</linearGradient>

<linearGradient id="paint0_linear_1_293" x1="19.774" y1="3.00672e-05" x2="105.785" y2="10.6444" gradientUnits="userSpaceOnUse">
<stop stop-color="#ED0233"/>
<stop offset="1" stop-color="#003EB7"/>
</linearGradient>
<linearGradient id="paint1_linear_1_293" x1="14" y1="49.52" x2="54.1858" y2="9.18415" gradientUnits="userSpaceOnUse">
<stop stop-color="#003D85"/>
<stop offset="0.885417" stop-color="#B80027"/>
</linearGradient>
</defs><symbol id="accordion-close" viewBox="0 0 42 42"><g fill="none">
<circle cx="21" cy="21" r="20.5" fill="#1C3374" stroke="#1C3374"/>
<path d="M30 21H21H12" stroke="white"/>
</g></symbol><symbol id="accordion-disabled" viewBox="0 0 42 42"><g fill="none">
<g opacity="0.3">
<circle cx="21" cy="21" r="20.5" stroke="#102654"/>
<path d="M21 12V21M21 30V21M21 21H30M21 21H12" stroke="#102654"/>
</g>
</g></symbol><symbol id="accordion-open-hover" viewBox="0 0 42 42"><g fill="none">
<circle cx="21" cy="21" r="21" fill="#102654"/>
<path d="M21 12V21M21 30V21M21 21H30M21 21H12" stroke="white"/>
</g></symbol><symbol id="accordion-open" viewBox="0 0 42 42"><g fill="none">
<g id="open">
<circle id="circle" cx="21" cy="21" r="20.5" stroke="#1C3374"/>
<path id="icon/plus" d="M21 12V21M21 30V21M21 21H30M21 21H12" stroke="#1C3374"/>
</g>
</g></symbol><symbol id="arrow" viewBox="0 0 22 22"><g fill="none">
<path d="M6 1L16 11L6 21" stroke="#102654"/>
</g></symbol><symbol id="back" viewBox="0 0 18 34"><g fill="none">
<path d="M17 1L0.999999 17L17 33" stroke="#AFAFAF"/>
</g></symbol><symbol id="favicon" viewBox="0 0 120 120"><g fill="none">
<rect width="120" height="120" fill="url(#paint0_linear_82_506)"/>
<path d="M59.4462 97C55.4256 97 51.9385 96.3823 48.9846 95.1469C46.0308 93.9115 43.7744 91.729 42.2154 88.5993C40.7385 85.4697 40 81.0634 40 75.3806V71.1803C41.9692 71.1803 43.9795 71.1803 46.0308 71.1803C48.0821 71.1803 50.0923 71.1803 52.0615 71.1803V76.369C52.0615 79.8281 52.3897 82.5047 53.0462 84.399C53.7026 86.2933 54.6051 87.611 55.7538 88.3523C56.9026 89.0111 58.2154 89.3406 59.6923 89.3406C62.0718 89.3406 63.959 88.5582 65.3538 86.9933C66.8308 85.3461 67.5692 82.2988 67.5692 77.8514C67.5692 74.557 67.0769 72.0863 66.0923 70.4391C65.1077 68.7919 63.5487 67.4741 61.4154 66.4858C59.3641 65.4151 56.6974 64.2209 53.4154 62.9032C50.7077 61.6678 48.3692 60.2265 46.4 58.5793C44.4308 56.9321 42.9538 54.8319 41.9692 52.2788C40.9846 49.7257 40.4923 46.5548 40.4923 42.7663C40.4923 38.1541 41.0667 34.4068 42.2154 31.5242C43.4462 28.5593 45.4974 26.4179 48.3692 25.1002C51.241 23.7001 55.0974 23 59.9385 23C66.1744 23 70.9333 24.4413 74.2154 27.3239C77.4974 30.1241 79.1385 34.2421 79.1385 39.6778V48.202C77.2513 48.202 75.3231 48.202 73.3538 48.202C71.4667 48.202 69.5385 48.202 67.5692 48.202V43.1369C67.5692 39.3484 66.9538 36.6305 65.7231 34.9833C64.5744 33.2538 62.6872 32.389 60.0615 32.389C57.3538 32.389 55.3846 33.2126 54.1538 34.8598C53.0051 36.4246 52.4308 38.9366 52.4308 42.3957C52.4308 45.3606 53.0051 47.6667 54.1538 49.3139C55.3026 50.8787 56.7795 52.1141 58.5846 53.02C60.4718 53.926 62.4 54.7496 64.3692 55.4908C68.0615 56.8909 71.0564 58.3322 73.3538 59.8147C75.6513 61.2972 77.3333 63.2738 78.4 65.7446C79.4667 68.2154 80 71.7156 80 76.2454C80 81.4341 79.1385 85.552 77.4154 88.5993C75.7744 91.5643 73.3949 93.7056 70.2769 95.0234C67.241 96.3411 63.6308 97 59.4462 97Z" fill="white"/>

</g></symbol><symbol id="gym-video-play" viewBox="0 0 100 100"><g fill="none">
<circle cx="50" cy="50" r="49" stroke="url(#paint0_linear_1_293)" stroke-opacity="0.2" stroke-width="2"/>
<circle cx="50" cy="50" r="36" fill="url(#paint1_linear_1_293)"/>
<path d="M59 49.5L46.25 56.8612L46.25 42.1388L59 49.5Z" fill="white"/>

</g></symbol><symbol id="icon-close" viewBox="0 0 20 20"><g fill="none"><path d="M.293 18.291a1 1 0 101.414 1.414L10 11.413l8.292 8.292a1 1 0 101.414-1.414l-8.292-8.292 8.292-8.292A1 1 0 1018.291.293L9.999 8.585 1.707.293A1 1 0 10.293 1.707L8.585 10 .293 18.291z"/></g></symbol><symbol id="icon-play" viewBox="0 0 22 22"><g fill="none">
<path d="M17.5 11L4.5 18.5L4.5 3.5L17.5 11Z" fill="#102654"/>
</g></symbol><symbol id="logotype" viewBox="0 0 120 23"><g fill="none">
<path d="M5.78473 22.8115C4.58873 22.8115 3.55139 22.623 2.67269 22.2459C1.794 21.8689 1.12277 21.2027 0.65902 20.2475C0.219673 19.2923 0 17.9475 0 16.2131V14.9311C0.585796 14.9311 1.1838 14.9311 1.794 14.9311C2.4042 14.9311 3.0022 14.9311 3.588 14.9311V16.5148C3.588 17.5705 3.68563 18.3874 3.8809 18.9656C4.07616 19.5437 4.34465 19.9459 4.68637 20.1721C5.02808 20.3732 5.41861 20.4738 5.85796 20.4738C6.56579 20.4738 7.12718 20.235 7.54212 19.7574C7.98147 19.2546 8.20114 18.3246 8.20114 16.9672C8.20114 15.9617 8.05469 15.2077 7.76179 14.7049C7.46889 14.2022 7.00514 13.8 6.37053 13.4984C5.76032 13.1716 4.96706 12.8071 3.99073 12.4049C3.18526 12.0279 2.48963 11.588 1.90384 11.0852C1.31804 10.5825 0.878693 9.94153 0.585796 9.1623C0.292898 8.38306 0.146449 7.4153 0.146449 6.25902C0.146449 4.85137 0.317306 3.70765 0.65902 2.82787C1.02514 1.92295 1.63535 1.2694 2.48963 0.867213C3.34392 0.439892 4.4911 0.226231 5.93118 0.226231C7.7862 0.226231 9.20187 0.666121 10.1782 1.5459C11.1545 2.40055 11.6427 3.65738 11.6427 5.31639V7.91803C11.0813 7.91803 10.5077 7.91803 9.92191 7.91803C9.36053 7.91803 8.78693 7.91803 8.20114 7.91803V6.37213C8.20114 5.21585 8.01808 4.38634 7.65196 3.88361C7.31024 3.35574 6.74885 3.0918 5.96779 3.0918C5.16232 3.0918 4.57653 3.34317 4.21041 3.8459C3.86869 4.3235 3.69784 5.09016 3.69784 6.1459C3.69784 7.05082 3.86869 7.75465 4.21041 8.25738C4.55212 8.73497 4.99147 9.11202 5.52845 9.38853C6.08983 9.66503 6.66343 9.91639 7.24922 10.1426C8.34759 10.5699 9.23849 11.0098 9.92191 11.4623C10.6053 11.9148 11.1057 12.518 11.423 13.2721C11.7403 14.0262 11.899 15.0945 11.899 16.477C11.899 18.0607 11.6427 19.3175 11.1301 20.2475C10.642 21.1525 9.93412 21.806 9.00661 22.2082C8.10351 22.6104 7.02955 22.8115 5.78473 22.8115Z" fill="white"/>
<path d="M21.1908 23C20.3609 23 19.592 22.9372 18.8842 22.8115C18.1763 22.6858 17.5661 22.4344 17.0536 22.0574C16.541 21.6803 16.1383 21.1148 15.8454 20.3607C15.5525 19.6066 15.406 18.5885 15.406 17.3066V0.263936H18.9208V18.2492C18.9208 18.9279 19.0184 19.4557 19.2137 19.8328C19.4334 20.1847 19.7141 20.4235 20.0558 20.5492C20.3975 20.6749 20.7758 20.7377 21.1908 20.7377C21.6057 20.7377 21.984 20.6749 22.3257 20.5492C22.6674 20.4235 22.9359 20.1847 23.1312 19.8328C23.3509 19.4557 23.4607 18.9279 23.4607 18.2492V0.263936H26.9389V17.2689C26.9389 18.5508 26.7924 19.5814 26.4995 20.3607C26.231 21.1148 25.8405 21.6803 25.3279 22.0574C24.8154 22.4344 24.2052 22.6858 23.4973 22.8115C22.7895 22.9372 22.0206 23 21.1908 23Z" fill="white"/>
<path d="M31.2648 22.5475V0.263936H38.5873C39.9541 0.263936 41.0037 0.578143 41.7359 1.20656C42.4682 1.83497 42.8343 2.76503 42.8343 3.99672V7.95574C42.8343 8.91093 42.7123 9.80328 42.4682 10.6328C42.2485 11.4372 41.8092 12.0907 41.1501 12.5934C40.5155 13.0962 39.588 13.3475 38.3676 13.3475H34.9261V22.5475H31.2648ZM34.9261 11.3115H37.1594C37.8917 11.3115 38.4408 11.0224 38.807 10.4443C39.1731 9.84098 39.3561 8.87322 39.3561 7.54098V5.54262C39.3561 4.3612 39.1975 3.51913 38.8802 3.01639C38.5629 2.51366 38.1235 2.2623 37.5621 2.2623H34.9261V11.3115Z" fill="white"/>
<path d="M46.2987 22.5475V0.263936H56.0376V2.82787H49.96V9.57705H54.9758V12.4049H49.96V20.059H56.0376V22.5475H46.2987Z" fill="white"/>
<path d="M59.3662 22.5475V0.263936H66.835C68.2019 0.263936 69.2515 0.578143 69.9837 1.20656C70.7403 1.83497 71.1187 2.76503 71.1187 3.99672V7.54098C71.1187 8.77268 70.7892 9.77814 70.1301 10.5574C69.4711 11.3115 68.4948 11.7262 67.2012 11.8016C68.031 11.877 68.6168 12.1536 68.9585 12.6311C69.3247 13.1087 69.6542 13.8503 69.9471 14.8557L72.034 22.5475H68.1531L66.4323 15.1197C66.2615 14.4913 66.0662 13.9383 65.8465 13.4607C65.6268 12.9831 65.2729 12.7443 64.7848 12.7443H62.9908V22.5475H59.3662ZM62.9908 10.218H65.3339C66.1882 10.218 66.7862 9.9918 67.1279 9.53934C67.4941 9.08689 67.6771 8.39563 67.6771 7.46557V4.63771C67.6771 3.8082 67.5063 3.20492 67.1646 2.82787C66.8472 2.45082 66.3469 2.2623 65.6635 2.2623H62.9908V10.218Z" fill="white"/>
<path d="M79.8687 22.9623C79.0388 22.9623 78.2578 22.824 77.5255 22.5475C76.7933 22.2962 76.1953 21.7809 75.7315 21.0016C75.2922 20.1973 75.0725 19.0033 75.0725 17.4197V4.97705C75.0725 3.61967 75.3166 2.58907 75.8048 1.88525C76.2929 1.15628 76.9763 0.666121 77.855 0.414755C78.7337 0.138252 79.7467 0 80.8939 0C82.041 0 83.054 0.138252 83.9327 0.414755C84.8114 0.691258 85.4948 1.19399 85.983 1.92295C86.4955 2.62678 86.7518 3.64481 86.7518 4.97705V7.99344H83.3469V4.82623C83.3469 4.07213 83.237 3.50656 83.0174 3.12951C82.8221 2.75246 82.5414 2.50109 82.1753 2.37541C81.8336 2.24973 81.4186 2.18689 80.9305 2.18689C80.4911 2.18689 80.0884 2.24973 79.7223 2.37541C79.3561 2.50109 79.0632 2.75246 78.8436 3.12951C78.6483 3.50656 78.5507 4.07213 78.5507 4.82623V18.2115C78.5507 18.9656 78.6483 19.5311 78.8436 19.9082C79.0632 20.2852 79.3561 20.5366 79.7223 20.6623C80.0884 20.788 80.4911 20.8508 80.9305 20.8508C81.6383 20.8508 82.2119 20.6372 82.6512 20.2098C83.115 19.7574 83.3469 19.0913 83.3469 18.2115V13.6869H81.1868V11.6131H86.7518V22.5475H84.1157L83.9327 20.6623C83.8839 20.7628 83.8228 20.876 83.7496 21.0016C83.6764 21.1022 83.6154 21.1902 83.5666 21.2656C83.2737 21.718 82.8343 22.1202 82.2485 22.4721C81.6871 22.7989 80.8939 22.9623 79.8687 22.9623Z" fill="white"/>
<path d="M93.3929 22.5475V12.9705L89.3656 0.263936H92.8437L95.1137 7.88033L95.2968 9.04918L95.5164 7.88033L97.8962 0.263936H101.155L96.9077 13.159V22.5475H93.3929Z" fill="white"/>
<path d="M104.11 22.5475V0.263936H108.431L112.055 16.1L115.716 0.263936H120V22.5475H116.888V5.3541L113.263 22.5475H110.847L107.222 5.3541V22.5475H104.11Z" fill="white"/>
</g></symbol><symbol id="minus" viewBox="0 0 22 22"><g fill="none">
<path d="M21 11H11H1" stroke="#102654"/>
</g></symbol><symbol id="next" viewBox="0 0 18 34"><g fill="none">
<path d="M1 1L17 17L1 33" stroke="#AFAFAF"/>
</g></symbol><symbol id="not-needed-in-sprite" viewBox="0 0 16 16"><g fill="none"><circle cx="8" cy="8" r="8" fill="#081597"/></g></symbol><symbol id="ok" viewBox="0 0 25 25"><g fill="none">
<path d="M12.5 0C5.59692 0 0 5.59692 0 12.5C0 19.4031 5.59692 25 12.5 25C19.4031 25 25 19.4031 25 12.5C25 5.59692 19.4031 0 12.5 0Z" fill="white"/>
<path d="M12.6803 6.88903C13.5788 6.88903 14.3095 7.64334 14.3095 8.57085C14.3095 9.49557 13.5788 10.2499 12.6803 10.2499C11.7818 10.2499 11.0511 9.49557 11.0511 8.57085C11.0511 7.64334 11.7818 6.88903 12.6803 6.88903ZM12.6803 12.6301C14.8507 12.6301 16.6152 10.8086 16.6152 8.57085C16.6152 6.33029 14.8507 4.50879 12.6803 4.50879C10.5098 4.50879 8.748 6.33029 8.748 8.57085C8.748 10.8086 10.5098 12.6301 12.6803 12.6301ZM14.2716 15.9435C15.0726 15.7535 15.8439 15.4266 16.5557 14.9657C17.0942 14.6164 17.2566 13.8817 16.9183 13.3258C16.5773 12.767 15.8683 12.5994 15.327 12.9514C13.7168 13.9962 11.6437 13.9962 10.0308 12.9514C9.49223 12.5994 8.78047 12.767 8.44219 13.3258C8.1039 13.8817 8.26628 14.6164 8.80483 14.9657C9.51659 15.4266 10.2879 15.7535 11.089 15.9435L8.88873 18.212C8.43948 18.6757 8.43948 19.43 8.88873 19.8938C9.11606 20.1257 9.40834 20.243 9.70332 20.243C9.99831 20.243 10.2933 20.1257 10.5206 19.8938L12.6803 17.6644L14.8426 19.8938C15.2918 20.3603 16.0198 20.3603 16.4718 19.8938C16.921 19.43 16.921 18.6757 16.4718 18.212L14.2716 15.9435Z" fill="#030A1A"/>
</g></symbol><symbol id="plus" viewBox="0 0 20 20"><g fill="none">
<path d="M10 0V10M10 20V10M10 10H20M10 10H0" stroke="#102654"/>
</g></symbol><symbol id="Reddit" viewBox="0 0 22 22"><g fill="none">
<path d="M12.9453 0.5C12.304 0.5 11.7021 0.84161 11.3161 1.33425C10.9301 1.82688 10.7173 2.4274 10.5623 3.06027C10.3161 4.07791 10.2401 5.20702 10.2219 6.22466C8.41944 6.35051 6.78722 6.91147 5.43159 7.77808C4.88143 7.29264 4.21882 7.02295 3.58356 7.03014C2.86015 7.03733 2.17322 7.36455 1.66258 8.03699C0.686888 9.32072 0.799351 11.4207 1.93005 12.6685C1.86015 13.0533 1.80847 13.4488 1.80847 13.8479C1.80847 18.0767 5.92399 21.5 11 21.5C16.076 21.5 20.1915 18.0731 20.1915 13.8479C20.1915 13.4488 20.1399 13.0533 20.0699 12.6685C21.2006 11.4207 21.3131 9.32072 20.3374 8.03699C19.8268 7.36455 19.1399 7.03733 18.4164 7.03014C17.7812 7.02295 17.1186 7.29264 16.5684 7.77808C15.2189 6.91507 13.5958 6.35411 11.8024 6.22466C11.8268 5.28613 11.8906 4.31164 12.0699 3.57808C12.1824 3.11781 12.3161 2.78339 12.459 2.6C12.6018 2.41661 12.7052 2.3411 12.9453 2.3411C13.4651 2.3411 13.5319 2.51729 13.845 2.94521C14.0031 3.16096 14.1854 3.43065 14.4772 3.69315C14.769 3.95565 15.2006 4.18219 15.6687 4.18219V2.3411C15.538 2.3411 15.5137 2.3375 15.4256 2.25479C15.3374 2.17209 15.2158 1.98151 15.0365 1.73699C14.6778 1.24435 13.9818 0.5 12.9453 0.5ZM18.0031 0.672603C16.7933 0.672603 15.8146 1.83048 15.8146 3.26164C15.8146 4.69281 16.7933 5.85069 18.0031 5.85069C19.2128 5.85069 20.1915 4.69281 20.1915 3.26164C20.1915 1.83048 19.2128 0.672603 18.0031 0.672603ZM18.0031 1.59315C18.7812 1.59315 19.4134 2.3411 19.4134 3.26164C19.4134 4.18219 18.7812 4.93014 18.0031 4.93014C17.225 4.93014 16.5927 4.18219 16.5927 3.26164C16.5927 2.3411 17.225 1.59315 18.0031 1.59315ZM11 7.66301C15.307 7.66301 18.9514 10.5002 18.9514 13.8479C18.9514 17.1993 15.307 20.0329 11 20.0329C6.69299 20.0329 3.0486 17.1993 3.0486 13.8479C3.0486 10.5002 6.69299 7.66301 11 7.66301ZM3.60787 8.49726C3.82368 8.50086 4.0486 8.55839 4.26441 8.66986C3.48325 9.37106 2.86319 10.1765 2.44069 11.0863C2.1489 10.3743 2.22793 9.48613 2.58659 9.01507C2.84799 8.66986 3.20969 8.49366 3.60787 8.49726ZM18.3921 8.49726C18.7903 8.49366 19.152 8.66986 19.4134 9.01507C19.7721 9.48613 19.8511 10.3743 19.5593 11.0863C19.1368 10.1765 18.5167 9.37106 17.7356 8.66986C17.9514 8.55839 18.1763 8.50086 18.3921 8.49726ZM7.88753 10.7986C7.10941 10.7986 6.47719 11.5466 6.47719 12.4671C6.47719 13.3877 7.10941 14.1356 7.88753 14.1356C8.66564 14.1356 9.29786 13.3877 9.29786 12.4671C9.29786 11.5466 8.66564 10.7986 7.88753 10.7986ZM14.1125 10.7986C13.3344 10.7986 12.7021 11.5466 12.7021 12.4671C12.7021 13.3877 13.3344 14.1356 14.1125 14.1356C14.8906 14.1356 15.5228 13.3877 15.5228 12.4671C15.5228 11.5466 14.8906 10.7986 14.1125 10.7986ZM7.13372 16.4658C7.62917 17.6776 9.16109 18.8534 11 18.8534C12.8389 18.8534 14.3952 17.6776 14.8906 16.4658C13.9909 17.1526 12.5714 17.6164 11 17.6164C9.42857 17.6164 8.03342 17.1526 7.13372 16.4658Z" fill="#030A1A"/>
</g></symbol><symbol id="ruble" viewBox="0 0 14 20"><g fill="none">
<path fill-rule="evenodd" clip-rule="evenodd" d="M1.86667 13.4864V8.09524H4.66667V13.4864H9.8V16.3435H4.66667V20H1.86667V16.3435H0V13.4864H1.86667Z" fill="#102654"/>
<path fill-rule="evenodd" clip-rule="evenodd" d="M8.63333 2.85714H4.66667V8.09524H8.63333C10.0509 8.09524 11.2 6.92265 11.2 5.47619C11.2 4.02973 10.0509 2.85714 8.63333 2.85714ZM1.86667 0V10.9524H8.63333C11.5973 10.9524 14 8.50061 14 5.47619C14 2.45177 11.5973 0 8.63333 0H1.86667Z" fill="#102654"/>
<path d="M1.86667 8.09524H0V10.9524H1.86667V8.09524Z" fill="#102654"/>
</g></symbol><symbol id="vk" viewBox="0 0 22 22"><g fill="none">
<path d="M21.8039 15.7032C21.7448 15.6086 21.379 14.8488 19.6189 13.2871C17.7762 11.6518 18.0238 11.9173 20.2432 9.0897C21.5949 7.36763 22.1353 6.31598 21.9662 5.86641C21.8053 5.43786 20.8111 5.55091 20.8111 5.55091L17.5053 5.56932C17.5053 5.56932 17.2606 5.53777 17.0777 5.64162C16.9003 5.74415 16.7862 5.98077 16.7862 5.98077C16.7862 5.98077 16.2623 7.31373 15.5637 8.44688C14.091 10.8381 13.501 10.9643 13.2604 10.8157C12.7007 10.47 12.841 9.42491 12.841 8.6835C12.841 6.36594 13.2082 5.39974 12.1246 5.14997C11.7643 5.06715 11.5003 5.01194 10.5803 5.00274C9.4005 4.99091 8.4008 5.00668 7.83563 5.27091C7.45885 5.44706 7.16871 5.84011 7.3461 5.86246C7.56474 5.89007 8.05977 5.98997 8.32242 6.33176C8.66207 6.77214 8.64969 7.76331 8.64969 7.76331C8.64969 7.76331 8.84496 10.491 8.19453 10.8302C7.74763 11.0629 7.13571 10.5883 5.82248 8.41796C5.15006 7.30716 4.64127 6.07805 4.64127 6.07805C4.64127 6.07805 4.54364 5.84932 4.369 5.72706C4.15724 5.57852 3.86022 5.53119 3.86022 5.53119L0.716735 5.5496C0.716735 5.5496 0.245075 5.56274 0.0718122 5.75861C-0.0821991 5.93345 0.0594363 6.29364 0.0594363 6.29364C0.0594363 6.29364 2.52087 11.7977 5.30682 14.5727C7.86313 17.1164 10.7646 16.9494 10.7646 16.9494H12.0792C12.0792 16.9494 12.4766 16.9074 12.6787 16.6984C12.8658 16.5064 12.8589 16.1463 12.8589 16.1463C12.8589 16.1463 12.8327 14.4597 13.6523 14.2112C14.4595 13.9667 15.4963 15.8413 16.595 16.563C17.4256 17.1085 18.0568 16.9889 18.0568 16.9889L20.9953 16.9494C20.9953 16.9494 22.5327 16.8587 21.8039 15.7032Z" fill="#030A1A"/>
</g></symbol></svg>